<svg width="1024" height="1024" viewBox="0 0 1024 1024" fill="none" xmlns="http://www.w3.org/2000/svg">
<path d="M615.315 147.077L661.896 147.033C693.263 146.973 720.711 153.199 720.563 191.77L720.32 297.992L764.549 297.958C801.088 297.96 843.942 296.34 844 346.183L843.835 442.978L843.852 793.407C843.871 858.794 842.912 869.221 774.757 869.173L720.32 869.148L653.808 869.17C647.351 869.168 619.394 869.622 615.315 868.262C614.166 867.747 586.213 869.165 582.564 869.175L373.808 869.214C303.814 869.348 305.943 857.616 305.94 796.592L305.763 750.903C305.705 734.494 306.12 724.099 304.696 707.362C300.979 707.879 297.765 708.375 294.155 707.362C266.66 707.554 239.023 706.818 211.535 707.821C174.289 709.182 180.922 663.323 180.914 639.152L180.939 559.02L180.96 217.367C180.948 193.143 174.996 155.247 207.06 148.321C226.768 144.062 282.214 147.33 304.696 147.077C313.372 146.543 328.935 147.063 338.036 147.067L615.315 147.077Z" fill="#FBF9FF"/>
<path d="M720.32 442.978C760.394 442.011 803.413 443.214 843.835 442.978L843.852 793.407C843.871 858.794 842.912 869.221 774.757 869.173L720.32 869.148L653.808 869.17C647.35 869.168 619.394 869.622 615.315 868.262C615.68 864.615 615.398 854.761 615.383 850.82L615.315 707.362H720.32V442.978Z" fill="#7C4DFF"/>
<path d="M615.315 707.362H720.32V869.148L653.808 869.17C647.35 869.168 619.394 869.622 615.315 868.262C615.68 864.615 615.398 854.761 615.383 850.82L615.315 707.362Z" fill="#9370DB"/>
<path d="M615.315 147.077L661.896 147.033C693.263 146.973 720.711 153.199 720.563 191.77L720.32 297.992C712.837 298.801 695.923 298.018 687.376 298.006L615.315 297.992H304.696C305.566 286.481 304.677 262.662 304.672 250.039L304.696 147.077C313.372 146.543 328.935 147.063 338.036 147.067L615.315 147.077Z" fill="#AA8BFF"/>
<path d="M615.315 147.077L661.896 147.033C693.263 146.973 720.711 153.199 720.563 191.77L720.32 297.992C712.837 298.801 695.923 298.018 687.376 298.006L615.315 297.992L615.32 196.779C615.315 181.892 614.603 161.382 615.315 147.077Z" fill="#5533CC"/>
<path d="M615.315 297.992L687.376 298.006C695.923 298.018 712.837 298.801 720.32 297.992L764.549 297.958C801.088 297.96 843.942 296.34 844 346.183L843.835 442.978C803.413 443.214 760.394 442.011 720.32 442.978V707.362H615.315C615.446 697 615.726 684.486 615.315 674.255V640.388V595.751C622.538 596.152 631.073 596.036 638.325 595.751C634.241 594.925 620.072 595.601 615.315 595.751V550.668C614.664 548.428 615.06 510.302 615.315 505.552H545.033C547.914 504.998 561.454 505.489 565.433 505.503L615.315 505.552V459.312C584.13 459.307 551.809 459.79 520.728 459.312C524.946 458.355 546.238 459.295 552.173 459.302L592.391 459.295C599.48 459.27 608.493 458.872 615.315 459.312V415.899C615.787 413.373 615.293 389.513 615.293 384.846L615.315 297.992Z" fill="#DFD9F2"/>
<path d="M720.32 297.992L764.549 297.958C801.088 297.96 843.942 296.34 844 346.183L843.835 442.978C803.413 443.214 760.394 442.011 720.32 442.978V297.992Z" fill="#5533CC"/>
<path d="M615.315 505.552C626.617 505.465 642.326 503.244 650.633 511.665C659.816 520.974 659.903 535.658 650.363 544.761C641.126 553.872 627.212 550.488 615.315 550.668C614.664 548.428 615.06 510.302 615.315 505.552Z" fill="#BC3A52"/>
<path d="M615.315 595.751C622.538 596.152 631.073 596.036 638.325 595.751C663.662 601.317 663.847 638.411 636.413 640.133C629.093 640.595 622.494 640.476 615.315 640.388V595.751Z" fill="#9370DB"/>
<path d="M615.315 415.899C632.47 415.664 656.599 412.002 657.219 437.923C657.751 460.155 630.929 459.956 615.315 459.312V415.899Z" fill="#9370DB"/>
<path d="M180.938 559.02L180.96 217.367C180.948 193.143 174.996 155.247 207.06 148.321C226.768 144.062 282.214 147.33 304.696 147.077L304.672 250.039C304.677 262.662 305.566 286.481 304.696 297.992C304.118 305.054 304.64 318.978 304.667 326.46L304.696 559.02H180.938Z" fill="#AA8BFF"/>
<path d="M615.315 674.255C615.726 684.486 615.447 697 615.315 707.362L615.383 850.82C615.398 854.761 615.68 864.615 615.315 868.262C614.166 867.747 586.213 869.165 582.563 869.175L373.808 869.214C303.814 869.348 305.943 857.616 305.94 796.592L305.763 750.903C305.705 734.494 306.12 724.099 304.696 707.362C300.979 707.879 297.765 708.375 294.155 707.362C297.736 707.442 301.113 707.418 304.696 707.362C316.768 707.909 332.657 707.372 345.05 707.369L552.088 707.359C572.96 707.362 594.529 707.704 615.315 707.362C615.281 696.347 615.184 685.266 615.315 674.255Z" fill="#AA8BFF"/>
<path d="M180.939 559.02H304.696V707.362C301.113 707.418 297.736 707.442 294.155 707.362C266.66 707.554 239.023 706.818 211.535 707.821C174.289 709.182 180.922 663.323 180.914 639.152L180.939 559.02Z" fill="#9370DB"/>
<path d="M615.315 550.667L418.7 550.714C409.803 550.728 401.38 550.998 392.357 550.165C371.079 548.204 353.548 505.093 409.356 505.501L545.033 505.552H615.315C615.06 510.302 614.664 548.428 615.315 550.667Z" fill="#FF4D6D"/>
<path d="M615.315 595.751C620.072 595.601 634.241 594.925 638.325 595.751C631.073 596.036 622.538 596.152 615.315 595.751V640.388L415.93 640.408C407.915 640.403 397.979 640.874 390.338 639.783C373.334 637.074 366.672 614.131 379.082 602.583C388.788 593.55 409.66 595.693 422.444 595.713L615.315 595.751Z" fill="#B8B0E8"/>
<path d="M615.315 415.899V459.312C608.493 458.872 599.48 459.27 592.391 459.295L552.173 459.302C546.238 459.295 524.946 458.354 520.728 459.312L433.527 459.326C419.832 459.324 404.023 459.824 390.549 458.573C374.862 455.932 367.202 438.503 375.501 425.272C383.234 412.945 401.754 415.897 415.15 415.892L615.315 415.899Z" fill="#B8B0E8"/>
</svg>
